<?xml version="1.0" encoding="iso-8859-1"?><!DOCTYPE svg PUBLIC "-//W3C//DTD SVG 1.1//EN" "http://www.w3.org/Graphics/SVG/1.1/DTD/svg11.dtd"><svg xmlns="http://www.w3.org/2000/svg" xmlns:xlink="http://www.w3.org/1999/xlink"><symbol viewBox="0 0 512 512" id="accueil" xmlns="http://www.w3.org/2000/svg"><path d="M509.032 172.69s-.01 0 0-.01c-.155-.253-.322-.499-.487-.745 0-.009 0-.018-.009-.036 1.631-9.251 1.003-19.252-2.179-28.635-1.348-3.972-5.755-6.485-9.727-5.158-4.033 1.338-6.171 5.705-4.783 9.707 1.682 4.813 2.452 9.859 2.351 14.935l-.071.071h-85.773l-.071-.071c-1.084-35.13 39.862-56.591 68.466-35.424 3.374 2.493 8.137 1.783 10.629-1.591 2.493-3.384 1.783-8.136-1.591-10.629-21.015-15.533-50.309-15.32-71.222 1.672-.061-.01-.081-.01-.132-.02-10.204-18.847-28.3-32.911-50.187-37.622-.03-.041-.041-.061-.061-.091l1.196-9.2c.051-.03.061-.041.101-.061 10.781 4.428 21.998 5.786 32.921 2.239 19.576-6.333 28.3-25.372 28.655-26.183a7.614 7.614 0 0 0-3.141-9.697c-22.596-12.99-40.814-10.801-53.895-1.51h-.01l3.394-25.788c.547-4.164-2.391-7.974-6.546-8.522-4.154-.547-7.985 2.381-8.532 6.546l-9.251 70.483c-.03.03-.051.041-.081.071a73.498 73.498 0 0 0-12.058.841 7.59 7.59 0 0 0-6.161 9.616c1.044 3.729 4.904 5.928 8.734 5.37 8.005-1.175 13.618-.365 15.179-.294.304.132 34.046 1.804 48.697 35.849v.081c-7.225 10.427-10.649 22.9-10.305 33.904 0 .01-.02.03-.041.03h-58.759l-.071-.071c-1.479-21.694-9.727-41.534-22.657-57.452 0-.051 0-.081.01-.132a52.41 52.41 0 0 1 2.786-2.037c3.881-2.655 4.519-8.278.963-11.764-2.645-2.584-6.829-2.665-9.869-.557a76.62 76.62 0 0 0-4.377 3.273h-.091c-21.329-19.445-49.711-29.121-79.197-26.254-.03-.02-.051-.03-.071-.051-4.702-12.048-13.588-22.707-25.595-29.496a7.614 7.614 0 0 0-8.744.902c-3.952 3.506-3.253 9.778 1.277 12.342 7.933 4.454 14.18 11.399 17.854 19.323-.01.041-.02.061-.03.101a7.557 7.557 0 0 0-3.344 8.116c1.348 5.796 7.073 5.836 7.174 5.877a7.09 7.09 0 0 0 1.945-.182c51.889-12.027 102.502 25.078 106.737 77.961-.041.041-.051.061-.091.101H184.765a.483.483 0 0 0-.071-.081c3.597-20.204-.405-40.683-10.812-58.03 0-.03.01-.051.01-.081a89.754 89.754 0 0 1 12.605-9.332c4.023-2.462 4.945-8.086 1.53-11.734-2.482-2.655-6.596-2.989-9.687-1.094a101.546 101.546 0 0 0-13.456 9.849h-.112c-9.41-10.609-21.387-18.63-35.099-23.477-.02-.051-.03-.071-.051-.122 6.525-12.372 19.293-21.309 34.157-22.576 4.357-.426 7.255-4.175 6.91-8.228-.365-4.175-4.053-7.275-8.228-6.91-19.637 1.763-35.991 12.939-45.131 28.534a55.622 55.622 0 0 0-2.817 5.472c-.03.02-.061.03-.091.051-11.875-1.814-24.035-1.013-35.738 2.401a3.177 3.177 0 0 1-.101-.051l-1.895-4.803h.01c14.044-1.246 25.372-6.181 33.772-14.743 15.969-16.293 14.723-39.497 14.662-40.47-.233-3.901-3.384-6.971-7.285-7.133-20.2-.808-35.784 4.431-46.302 15.536-3.628 3.83-6.302 8.015-8.258 12.2-.071-.01-.071-.01-.142-.01l-8.957-22.9A7.591 7.591 0 0 0 44.349.78c-3.911 1.53-5.846 5.938-4.316 9.839l24.399 62.326a.377.377 0 0 1-.041.101c-17.55 8.755-31.35 23.234-39.315 41.422-6.738 15.412-8.684 32.11-5.776 48.302-.03.041-.041.051-.071.091a21.25 21.25 0 0 0-6.657 1.571h-.01c-.554.24-1.942.939-2.645 1.358 0 0 0 .01-.01 0a21.256 21.256 0 0 0-6.89 6.89c.01.01 0 .01 0 .01-2.245 3.728-2.824 5.352-2.969 15.46-.11 7.72 0 20.389 0 42.721 0 11.298 9.19 20.488 20.488 20.488h1.591v231.065c0 16.212 13.183 29.395 29.395 29.395H462.36c16.212 0 29.395-13.183 29.395-29.395V251.349c11.186-.122 20.245-9.261 20.245-20.478v-47.563c-.001-3.75-1.08-7.48-2.968-10.618zM409.225 45.748c.02.051.02.061.041.122-3.212 4.215-8.41 9.423-15.655 11.723-6.829 2.179-14.53 1.449-22.981-2.138-.01-.051-.02-.071-.03-.122 9.089-12.685 21.937-16.688 38.625-9.585zM82.578 26.243c6.08-6.414 15.077-10.011 26.821-10.73.03.041.051.061.081.091-.871 6.13-3.313 14.935-9.859 21.623-6.09 6.211-14.844 9.697-26.071 10.386-.03-.041-.051-.061-.081-.091.69-5.978 2.807-14.631 9.109-21.279zm-5.642 57.848h.01c51.595-20.205 103.88 25.858 92.247 78.66-.03.03-.051.041-.091.071H34.885c-.041-.03-.061-.041-.091-.071-6.976-31.667 9.523-65.899 42.142-78.66zm74.554 197.19l11.409 11.409-50.379 50.38-11.409-11.409 50.379-50.38zm-8.419-29.921h16.84l-8.42 8.42-8.42-8.42zm52.74 29.921l50.379 50.379-11.409 11.409-50.379-50.379 11.409-11.409zm-8.421-29.921h16.84l-8.42 8.42-8.42-8.42zm130.682 29.921l11.409 11.409-50.379 50.379-11.409-11.409 50.379-50.379zm-8.42-29.921h16.84l-8.42 8.42-8.42-8.42zm52.74 29.921l50.379 50.379-11.409 11.409-50.379-50.379 11.409-11.409zm-8.421-29.921h16.84l-8.42 8.42-8.42-8.42zM162.9 414.952l-11.409 11.409-50.379-50.379 11.409-11.409 50.379 50.379zm-39.628-61.131l50.379-50.379 50.379 50.379-50.378 50.379-50.38-50.379zm50.38 71.881l11.409 11.409-11.409 11.409-11.409-11.409 11.409-11.409zm10.75-10.75l50.379-50.379 11.409 11.409-50.379 50.379-11.409-11.409zm61.129-61.131l11.409-11.409 11.409 11.409-11.409 11.409-11.409-11.409zm33.571 10.751l50.379 50.38-11.409 11.409-50.379-50.379 11.409-11.41zm10.751-10.751l50.379-50.379 50.379 50.379-50.379 50.379-50.379-50.379zm50.378 71.881l11.409 11.409-11.409 11.409-11.409-11.409 11.409-11.409zm10.752-10.75l50.379-50.379 11.409 11.409-50.379 50.379-11.409-11.409zm61.13-61.131l11.409-11.409 11.409 11.409-11.409 11.409-11.409-11.409zm-71.882-71.88l-11.409-11.409 11.409-11.409 11.409 11.409-11.409 11.409zm-83.289 38.97l-50.379-50.379 19.171-19.171h62.417l19.171 19.171-50.38 50.379zm-83.29-38.97l-11.409-11.409 11.409-11.409 11.409 11.409-11.409 11.409zm-71.881 71.88l-11.41 11.409-11.409-11.409 11.409-11.409 11.41 11.409zM68.2 343.071l-30.874-30.874v-22.819l42.284 42.283-11.41 11.41zm-10.751 10.75l-20.123 20.123v-40.247l20.123 20.124zM68.2 364.572l11.409 11.409-42.284 42.284v-22.819L68.2 364.572zM51.523 496.62c-7.833 0-14.196-6.363-14.196-14.196v-42.658l53.034-53.034 50.379 50.38-59.508 59.508H51.523zm51.21 0l48.758-48.758 11.409 11.409-37.349 37.349h-22.818zm44.32 0l26.598-26.598 26.598 26.598h-53.196zm74.698 0l-37.349-37.349 11.409-11.409 48.758 48.758h-22.818zm-15.189-59.509l50.379-50.379 50.379 50.379-50.379 50.379-50.379-50.379zm62.751 59.509l48.758-48.758 11.409 11.409-37.349 37.349h-22.818zm44.32 0l26.598-26.598 26.598 26.598h-53.196zm74.698 0l-37.349-37.349 11.409-11.409 48.758 48.758h-22.818zm74.03 0h-29.709l-59.509-59.509 50.379-50.379 53.034 53.034v42.658c.001 7.833-6.363 14.196-14.195 14.196zm14.196-78.355l-42.284-42.283 11.409-11.409 30.874 30.874v22.818zm-.001-44.321l-20.123-20.123 20.123-20.123v40.246zm.001-61.748l-30.874 30.874-11.409-11.409 42.284-42.284v22.819zm0-44.32l-53.034 53.034-50.379-50.379 19.171-19.171h84.243v16.516zm20.244-37.004a5.284 5.284 0 0 1-5.046 5.279c-.081.01-.162.01-.243.01H89.246a7.596 7.596 0 0 0-7.599 7.599 7.595 7.595 0 0 0 7.599 7.599h32.323l19.171 19.171-50.38 50.38-53.034-53.034V251.36h21.522a7.602 7.602 0 0 0 7.599-7.599 7.602 7.602 0 0 0-7.599-7.599H20.536a5.293 5.293 0 0 1-5.289-5.289v-47.492a5.362 5.362 0 0 1 5.36-5.36H491.44a5.362 5.362 0 0 1 5.36 5.36l.001 47.491z"/></symbol><symbol viewBox="0 0 430.118 430.117" id="cerise" xmlns="http://www.w3.org/2000/svg"><path d="M181.259 281.014c0 10.879-8.844 19.69-19.741 19.69-10.898 0-19.728-8.812-19.728-19.69 0-10.888 8.83-19.732 19.728-19.732 10.898-.001 19.741 8.839 19.741 19.732zm217.794-21.296c0 57.475-46.652 104.058-104.146 104.058-.91 0-1.797-.08-2.702-.103-18.174 39.198-57.778 66.444-103.852 66.444-63.253 0-114.516-51.23-114.516-114.441 0-50.315 32.571-92.963 77.772-108.273 1.675-77.569-27.116-128.902-60.317-125.899-34.737 3.148-63.155 3.148-59.986-14.199 3.146-17.333 31.559 1.586 34.737-20.507C69.18 24.735 53.405 15.272 77.085 2.662c21.8-11.619 27.522 16.893 25.823 44.876 80.624-19.749 147.498 77.042 168.146 111.006 7.668-1.806 15.625-2.887 23.858-2.887 57.489-.008 104.141 46.583 104.141 104.061zm-221.139-57.911c3.444-.311 6.912-.525 10.44-.525 6.609 0 13.04.677 19.354 1.752a104.585 104.585 0 0 1 47.408-39.409C197.3 72.909 146.793 61.325 118.002 64.632c51.366 39.035 58.852 118.054 59.912 137.175zm100.309 113.869c0-39.628-25.749-73.212-61.433-85.118-.042.107-.093.22-.13.322-6.539-2.184-13.357-3.575-20.465-4.195.042-.131.103-.252.145-.388-2.632-.238-5.288-.406-7.985-.406-49.644 0-89.874 40.217-89.874 89.781 0 49.587 40.23 89.809 89.874 89.809 33.575 0 62.809-18.44 78.239-45.7-.121-.037-.242-.061-.354-.099a88.587 88.587 0 0 0 8.088-19.251c.112.027.233.046.336.069 2.275-7.892 3.559-16.204 3.559-24.824zm100.347-55.958c0-46.183-37.481-83.594-83.662-83.594-26.972 0-50.811 12.823-66.034 32.665 43.217 16.36 73.991 57.991 73.991 106.888 0 9.46-1.278 18.599-3.439 27.392 44.066-2.363 79.144-38.734 79.144-83.351z"/></symbol><symbol viewBox="0 0 33 33" id="poire" xmlns="http://www.w3.org/2000/svg"><path d="M16.5 33c-5.226 0-10.809-2.066-10.809-7.864 0-3.112 1.608-4.757 3.026-6.208 1.048-1.071 1.953-1.997 1.953-3.329 0-4.181 2.289-6.882 5.83-6.882a.5.5 0 0 1 0 1c-3.565 0-4.83 3.169-4.83 5.882 0 1.74-1.087 2.852-2.238 4.028-1.348 1.379-2.741 2.804-2.741 5.509C6.691 31.505 14.199 32 16.5 32a.5.5 0 0 1 0 1z"/><path d="M16.5 33a.5.5 0 0 1 0-1c2.301 0 9.809-.495 9.809-6.864 0-2.705-1.394-4.13-2.741-5.509-1.151-1.177-2.238-2.288-2.238-4.028 0-2.713-1.265-5.882-4.83-5.882a.5.5 0 0 1 0-1c3.542 0 5.83 2.701 5.83 6.882 0 1.332.905 2.258 1.953 3.329 1.418 1.451 3.026 3.096 3.026 6.208C27.309 30.934 21.726 33 16.5 33zM13.858 16.075a.5.5 0 0 1-.498-.455c-.207-2.279 1.403-3.767 1.471-3.828a.5.5 0 0 1 .673.739c-.013.013-1.309 1.226-1.148 2.999a.5.5 0 0 1-.498.545zM16.73 7.478c-.146 0-.237-.005-.257-.006A.5.5 0 0 1 16.001 7c-.008-.134-.159-3.311 1.763-5.232C19.685-.154 22.863-.001 22.995.005a.5.5 0 0 1 .472.472c.008.134.16 3.311-1.762 5.232-1.63 1.63-4.161 1.769-4.975 1.769zm5.736-6.471c-.881.036-2.789.261-3.995 1.468-1.211 1.211-1.434 3.115-1.469 3.995.881-.036 2.789-.261 3.996-1.468 1.211-1.211 1.433-3.115 1.468-3.995z"/><path d="M16.5 7.473a.5.5 0 0 1-.491-.408c-.528-2.815-3.467-4.667-3.497-4.686a.5.5 0 0 1 .527-.849c.136.084 3.344 2.107 3.952 5.352a.499.499 0 0 1-.491.591z"/></symbol></svg>